<?xml version="1.0" encoding="UTF-8"?><svg id="Layer_1" xmlns="http://www.w3.org/2000/svg" viewBox="0 0 428.92 92.2"><path d="M27.32,73.91c.94-6.06,4.85-21.27,9.42-36.07-10.5,16.15-22.48,35.53-29.75,52.22-.81,1.88-2.83,2.29-4.58.54-1.48-1.48-2.42-3.77-2.42-6.73,0-2.56.67-5.52,1.88-8.48C7.4,61.93,28.53,26.67,42.67,7.69c1.62-2.15,3.77-2.96,6.33-.94,3.63,3.1,5.52,6.6,5.52,10.9,0,2.42-.67,5.79-1.88,9.69-4.17,12.11-6.86,20.32-11.71,38.36,14.13-21.4,28.53-34.59,43.48-58.28,1.75-2.83,3.5-2.96,6.06-.54,2.69,2.83,3.9,6.06,3.9,9.29,0,3.63-1.48,7.4-3.23,11.04-9.29,17.36-22.61,44.01-29.21,62.86-.94,2.69-2.15,2.69-4.31.81-1.62-1.48-3.1-3.77-3.1-7.67,0-2.15.27-4.71,1.08-7.67v.13c1.62-6.33,8.21-20.46,14.81-33.92-11.84,15.21-24.9,33.38-32.84,47.78-1.48,2.69-2.69,2.69-4.71,1.21-3.63-2.83-5.92-6.46-5.92-12.11,0-1.48.13-2.96.4-4.71Z" style="fill:#231f20;"/><path d="M102.69,70.68c-3.23,0-6.46-.94-9.56-2.96-.81,2.69-1.21,5.52-1.21,7.94,0,5.92,2.42,10.09,6.46,10.09,10.23,0,19.25-9.96,24.77-18.31,1.48-2.15,3.23-2.42,4.31.27.4,1.21.54,5.11-1.88,8.75-5.65,8.21-16.42,14.54-26.92,14.67-12.52.13-19.38-8.08-19.38-18.84,0-4.85,1.35-10.1,4.17-15.48,7-14.27,17.9-21.4,25.71-21.4,1.88,0,3.37.27,4.71,1.08,3.77,2.15,6.46,4.31,8.35,7,.81,1.21,1.35,3.23,1.35,4.98,0,8.08-9.02,22.21-20.86,22.21ZM95.02,62.61c1.08.67,2.02.94,2.96.94,3.23,0,7.54-4.04,10.23-7.67,3.9-5.25,6.73-11.58,5.25-12.79-2.02-1.62-11.98,6.6-18.44,19.52Z" style="fill:#231f20;"/><path d="M123.69,61.4c2.69-2.29,4.71-1.61,5.11,1.62,4.44-6.33,9.15-13.33,12.65-19.11.54-4.85,2.15-7.94,5.25-10.5,2.15-1.88,4.58-2.83,6.6-2.83,3.63,0,4.44,2.96.27,9.83-.13,1.62-.27,3.9-.27,5.65,0,9.56,1.75,18.31,1.48,25.57-.13,3.37-.81,7.13-2.29,10.1,5.52-3.77,9.29-8.21,11.71-14.81,1.21-3.1,3.23-2.15,4.17,0,.67,1.35,1.08,5.11-1.35,9.29-5.11,9.42-14.54,14.54-24.63,14.94-8.08.27-16.15-1.88-20.73-10.36-1.48-2.56-2.29-5.79-2.29-8.88,0-4.04,1.35-7.94,4.31-10.5ZM141.86,69.34c0-4.31-.13-8.61-.4-12.25-3.23,5.11-7,10.9-11.04,16.69,1.62,6.33,4.44,11.04,7.4,11.04s4.04-6.73,4.04-15.48Z" style="fill:#231f20;"/><path d="M196.23,91.14c-8.88,0-12.92-4.44-12.92-11.44,0-8.48,6.6-20.19,11.71-28.13,2.56-4.44,4.58-7.67,3.63-7.67-1.21,0-14,8.48-21.13,20.06-4.58,7.54-9.42,16.82-12.65,24.9-1.08,2.42-3.1,2.83-4.71.81-2.15-2.56-4.04-5.79-.67-14.67,5.38-14.13,32.03-59.22,42.94-73.22,2.15-2.69,4.17-2.15,5.38.54.67,1.48,1.08,3.23,1.08,5.11,0,3.63-1.62,8.61-4.85,14.27-2.69,4.44-11.04,16.96-12.38,18.84,4.04-2.96,8.75-4.58,11.31-4.58,3.9,0,7.81,4.17,7.81,9.42,0,1.88-.4,3.77-1.48,5.65-7.4,13.19-10.77,18.84-12.25,22.07-1.21,2.96-1.75,5.79-1.75,7.94,0,2.83.67,4.58,2.56,4.58,4.71,0,11.84-9.56,15.88-17.77.94-2.02,3.1-2.29,4.17,0,.67,1.62,1.62,4.71-.4,8.75-3.9,7.81-12.65,14.54-21.27,14.54Z" style="fill:#231f20;"/><path d="M223.29,79.3c6.59-1.62,13.06-2.56,17.9-2.96,7.4-.54,11.31,2.29,13.06,6.46.67,1.62.4,2.96-2.69,2.96-6.33-.13-20.73,3.23-28.4,5.25-3.9.94-5.65.94-7.54-1.75-1.35-1.88-3.1-4.31-3.63-5.79-.94-2.42-.94-4.58.4-8.21,6.46-16.42,28.67-56.8,37.01-68.11,2.15-2.96,3.77-2.02,5.12.4.67,1.35,1.21,3.36,1.21,5.52,0,3.36-1.21,8.08-4.58,14-11.71,21.4-20.46,36.48-27.86,52.22Z" style="fill:#231f20;"/><path d="M270.53,91.01c-8.21,0-11.84-4.71-11.84-11.44,0-2.56.54-5.38,1.62-8.88,3.37-9.42,11.98-25.04,16.96-32.03,2.02-2.69,3.63-2.96,5.38-.94,2.56,2.69,3.63,8.48.13,15.21-2.56,5.79-8.75,15.88-11.04,21.27-1.21,3.1-1.88,5.92-1.88,8.08s.54,3.37,2.02,3.37c5.38,0,12.38-9.02,16.56-18.17,1.08-2.42,2.83-2.15,4.04.27,1.21,2.29,1.08,5.65-.67,9.15-4.04,8.48-13.33,14.13-21.27,14.13ZM287.76,22.36c3.77,0,7.4,4.85,7.4,8.75,0,3.63-2.02,6.73-5.38,6.73-4.31,0-7.94-4.04-7.94-8.21,0-3.77,2.83-7.27,5.92-7.27Z" style="fill:#231f20;"/><path d="M312.12,42.96c0,.94,0,1.88-.13,2.69,5.79-5.38,12.25-9.83,17.09-9.83,3.9,0,7.54,4.71,7.54,9.83,0,2.96-2.42,7.27-6.73,14.81-4.31,6.86-8.88,15.75-8.88,20.73,0,2.83.94,4.58,2.69,4.58,4.58,0,11.58-8.75,16.42-17.77,1.35-2.56,3.23-2.42,4.44-.54,1.08,1.62,1.21,5.79-.67,9.42-3.77,7.4-13.59,14.54-21.67,14.54-9.02,0-12.92-4.58-12.92-11.58s6.19-19.65,11.44-28c2.83-4.44,4.98-7.94,4.04-7.94-1.21,0-7.81,3.77-15.21,12.11-7.4,7.81-13.46,21-18.98,33.11-.94,2.15-2.69,2.96-4.85.81-1.88-1.88-2.96-4.17-2.96-7.4,0-2.02.4-4.31,1.21-7,2.56-7.54,12.92-26.38,21.27-38.9,1.75-2.56,3.77-2.42,5.12,0,1.21,2.02,1.75,4.17,1.75,6.33Z" style="fill:#231f20;"/><path d="M362.72,70.68c-3.23,0-6.46-.94-9.56-2.96-.81,2.69-1.21,5.52-1.21,7.94,0,5.92,2.42,10.09,6.46,10.09,10.23,0,19.25-9.96,24.77-18.31,1.48-2.15,3.23-2.42,4.31.27.4,1.21.54,5.11-1.88,8.75-5.65,8.21-16.42,14.54-26.92,14.67-12.52.13-19.38-8.08-19.38-18.84,0-4.85,1.35-10.1,4.17-15.48,7-14.27,17.9-21.4,25.71-21.4,1.88,0,3.36.27,4.71,1.08,3.77,2.15,6.46,4.31,8.34,7,.81,1.21,1.35,3.23,1.35,4.98,0,8.08-9.02,22.21-20.86,22.21ZM355.05,62.61c1.08.67,2.02.94,2.96.94,3.23,0,7.54-4.04,10.23-7.67,3.9-5.25,6.73-11.58,5.25-12.79-2.02-1.62-11.98,6.6-18.44,19.52Z" style="fill:#231f20;"/><path d="M383.72,61.4c2.69-2.29,4.71-1.61,5.12,1.62,4.44-6.33,9.15-13.33,12.65-19.11.54-4.85,2.15-7.94,5.25-10.5,2.15-1.88,4.58-2.83,6.59-2.83,3.63,0,4.44,2.96.27,9.83-.13,1.62-.27,3.9-.27,5.65,0,9.56,1.75,18.31,1.48,25.57-.13,3.37-.81,7.13-2.29,10.1,5.52-3.77,9.29-8.21,11.71-14.81,1.21-3.1,3.23-2.15,4.17,0,.67,1.35,1.08,5.11-1.35,9.29-5.12,9.42-14.54,14.54-24.63,14.94-8.08.27-16.15-1.88-20.73-10.36-1.48-2.56-2.29-5.79-2.29-8.88,0-4.04,1.35-7.94,4.31-10.5ZM401.89,69.34c0-4.31-.13-8.61-.4-12.25-3.23,5.11-7,10.9-11.04,16.69,1.62,6.33,4.44,11.04,7.4,11.04s4.04-6.73,4.04-15.48Z" style="fill:#231f20;"/></svg>